<svg xmlns="http://www.w3.org/2000/svg" viewBox="0 0 587.2 296.3"><defs><style>.cls-1{fill:#fff}</style></defs><g id="Layer_2" data-name="Layer 2"><g id="white_logo" data-name="white logo"><g id="white"><path id="bg" d="M0 0h587.2v296.3H0z"/><g id="timothy-mayer-artworks_white"><path class="cls-1" d="M80.6 139.7h-5.8V87.4H55.5v-5.2H100v5.2H80.6zM106.8 139.7H101V96.6h5.7zM137.5 130.2h.2l13-33.6h8.8v43.1h-5.7v-36.3h-.1L139 139.7h-3.5l-14.5-36.3h-.1v36.3h-5.7V96.6h9zM210.8 118a23 23 0 0 1-1.8 9 21.5 21.5 0 0 1-12 12 23.7 23.7 0 0 1-9 1.7 23.4 23.4 0 0 1-9-1.7 21.9 21.9 0 0 1-7.3-4.7 21.3 21.3 0 0 1-4.7-7.2 25.2 25.2 0 0 1 0-18.2 21 21 0 0 1 4.8-7 21.3 21.3 0 0 1 7.1-4.7 24.6 24.6 0 0 1 9-1.6 24.9 24.9 0 0 1 9.1 1.6 21.2 21.2 0 0 1 7.2 4.6 21.4 21.4 0 0 1 4.8 7.1 23 23 0 0 1 1.8 9.1zm-6.2 0a19.2 19.2 0 0 0-1.2-6.7 17.1 17.1 0 0 0-3.3-5.6 15.3 15.3 0 0 0-5.2-3.8 16.8 16.8 0 0 0-7-1.3 16.4 16.4 0 0 0-6.8 1.4 15.4 15.4 0 0 0-5.2 3.7 16.3 16.3 0 0 0-3.3 5.6 19.7 19.7 0 0 0-1.1 6.7 19.3 19.3 0 0 0 1.1 6.8 17.4 17.4 0 0 0 3.3 5.6 15 15 0 0 0 5.2 3.7 16.4 16.4 0 0 0 6.8 1.4 16.8 16.8 0 0 0 7-1.4 15.3 15.3 0 0 0 5.2-3.7 17.1 17.1 0 0 0 3.3-5.6 19.5 19.5 0 0 0 1.2-6.8zM228.3 139.7h-5.7v-38h-13.9v-5h33.7v5h-14zM244.6 96.6h5.7v18.3h24V96.5h5.6v43.1h-5.6v-19.9h-24v20h-5.7zM302.9 139.7h-5.7V121l-16-24.4h6.7l12.2 19.7 12.2-19.7h6.8L303 121zM363.3 129.8h.1l19.3-47.6h8.9v57.5h-5.9v-50h-.1l-20.8 50h-3.1l-20.8-50h-.2v50H335V82.2h9zM399.6 139.7h-6l18.6-43.1h5.3l18.5 43.1h-6.4L425 129h-21zm6.6-15.7h17l-8.4-20.8zM449.8 139.7H444V121L428 96.6h6.8l12.2 19.7 12.2-19.7h6.8L449.8 121zM473 134.5h22.6v5.2h-28.4V96.6h27.5v5h-21.8v13.2h20.5v5h-20.5zM507.4 139.7h-5.7V96.6h13.7a26.2 26.2 0 0 1 5.9.6 14.7 14.7 0 0 1 4.9 2 9.6 9.6 0 0 1 3.2 3.7 11.8 11.8 0 0 1 1.2 5.5 10.2 10.2 0 0 1-3 7.7 13.7 13.7 0 0 1-7.6 3.6l12 20h-7L514 120.4h-6.6zm0-24.2h7a15.3 15.3 0 0 0 7.4-1.6q3-1.6 3-5.5a6.4 6.4 0 0 0-.8-3.3 5.5 5.5 0 0 0-2.1-2 9.6 9.6 0 0 0-3.2-1.2 22.6 22.6 0 0 0-3.9-.3h-7.4zM64.6 212.5H55l26.4-63.4h7.8l26.1 63.4h-9.6L99.6 197h-29zm9.1-23.4h22.8l-11.3-29.7zM132.1 212.5h-8.5v-63.4h19.6a36.4 36.4 0 0 1 8.3 1 20.2 20.2 0 0 1 7 3 14.5 14.5 0 0 1 4.6 5.3 17.8 17.8 0 0 1 1.7 8.2q0 7-4.1 11.3a19 19 0 0 1-10.7 5.5l17 29.1h-10.3l-15.4-28.2H132zm0-35.6h9.8a27.3 27.3 0 0 0 5.6-.6 13.8 13.8 0 0 0 4.6-1.7 9.1 9.1 0 0 0 3-3.2 10.8 10.8 0 0 0 0-9.6 9 9 0 0 0-3-3 12.7 12.7 0 0 0-4.3-1.7 26.9 26.9 0 0 0-5.3-.5h-10.4zM197.1 212.5h-8.5V157H169V149h47.5v7.8h-19.5zM241.2 199.6h.1l14.3-50.5h9.4l14.2 50.5h.2l13.4-50.5h9l-18 63.4H275l-14.8-51h-.1l-14.9 51h-8.8l-18-63.4h9.3zM370.8 180.7a36.2 36.2 0 0 1-2.4 13.5 32.2 32.2 0 0 1-6.8 10.6 30 30 0 0 1-10.2 6.9 34.8 34.8 0 0 1-25.8 0 30.3 30.3 0 0 1-10.2-7 31.6 31.6 0 0 1-6.7-10.5 39.2 39.2 0 0 1 0-27 30 30 0 0 1 17-17.3 35.5 35.5 0 0 1 25.7 0 30.2 30.2 0 0 1 10.2 6.7 31.2 31.2 0 0 1 6.8 10.5 36.5 36.5 0 0 1 2.4 13.6zm-9.2 0a29.2 29.2 0 0 0-1.6-9.8 25 25 0 0 0-4.7-8.1 21.9 21.9 0 0 0-7.2-5.5 23.7 23.7 0 0 0-19.1 0 21.4 21.4 0 0 0-7.2 5.5 25.6 25.6 0 0 0-4.7 8.1 29.2 29.2 0 0 0-1.6 9.8 29.8 29.8 0 0 0 1.6 10 24.5 24.5 0 0 0 4.7 8 21.6 21.6 0 0 0 7.2 5.5 22 22 0 0 0 9.5 2 22.6 22.6 0 0 0 9.5-2 21.4 21.4 0 0 0 7.3-5.4 24.5 24.5 0 0 0 4.7-8.1 29.8 29.8 0 0 0 1.6-10zM391.3 212.5h-8.5v-63.4h19.5a36.4 36.4 0 0 1 8.4 1 20.2 20.2 0 0 1 7 3 14.5 14.5 0 0 1 4.6 5.3 17.8 17.8 0 0 1 1.7 8.2q0 7-4.1 11.3a19 19 0 0 1-10.7 5.5l17 29.1H416l-15.5-28.2h-9zm0-35.6h9.8a27.4 27.4 0 0 0 5.6-.6 13.9 13.9 0 0 0 4.5-1.7 9 9 0 0 0 3.1-3.2 10.8 10.8 0 0 0 0-9.6 9 9 0 0 0-3-3 12.6 12.6 0 0 0-4.3-1.7 26.9 26.9 0 0 0-5.2-.5h-10.5zM444.5 177h.2l27.2-28h11.8L454 178l31.4 34.5h-12.3l-28.5-32.8h-.2v32.8H436V149h8.5zM523.3 160.8a13.6 13.6 0 0 0-4.9-4.2 14.5 14.5 0 0 0-7-1.7 15.5 15.5 0 0 0-4.1.6 11.4 11.4 0 0 0-3.9 1.9 10.4 10.4 0 0 0-2.8 3.2 9.4 9.4 0 0 0-1 4.6 8.7 8.7 0 0 0 1 4.4 9.2 9.2 0 0 0 2.6 3 16.8 16.8 0 0 0 4 2l4.9 1.8 6.3 2.2a22.5 22.5 0 0 1 5.7 3.3 16.3 16.3 0 0 1 4.2 5.2 16.7 16.7 0 0 1 1.7 7.8 19.5 19.5 0 0 1-1.8 8.6 17.4 17.4 0 0 1-4.7 6 19.6 19.6 0 0 1-6.7 3.5 27.2 27.2 0 0 1-8 1.2 27.8 27.8 0 0 1-11-2.3 22.1 22.1 0 0 1-9-7l6.7-5.8a16.4 16.4 0 0 0 5.7 5.4 15.6 15.6 0 0 0 7.9 2 15.2 15.2 0 0 0 4.3-.6 11.7 11.7 0 0 0 3.9-2 10.5 10.5 0 0 0 2.9-3.3 9.9 9.9 0 0 0 1-5 9 9 0 0 0-1-4.7 10.3 10.3 0 0 0-3.2-3.3 20.4 20.4 0 0 0-4.6-2.3l-5.6-1.9a44.9 44.9 0 0 1-5.7-2.2 19.9 19.9 0 0 1-5.1-3.3 15.3 15.3 0 0 1-3.6-5 17.4 17.4 0 0 1-1.4-7.3 16.9 16.9 0 0 1 1.8-8.2 17.5 17.5 0 0 1 4.9-5.7 19.9 19.9 0 0 1 6.7-3.2 28.2 28.2 0 0 1 7.5-1 25.3 25.3 0 0 1 10 2 20 20 0 0 1 7.5 5.3z"/><path class="cls-1" d="M366.4 179.3v3.1a2.3 2.3 0 0 0-.2.6 30.6 30.6 0 0 1-1.2 7 29.3 29.3 0 0 1-2.5 6c-.8 1.3-1.5 2.5-2.4 3.7a24.6 24.6 0 0 1-4 4.7 27 27 0 0 1-7 4.6 24.6 24.6 0 0 1-6.6 2l-2.6.4h-2.8a2 2 0 0 0-.3-.1 24.5 24.5 0 0 1-7.5-1.8 26.6 26.6 0 0 1-7.6-4.6 34.4 34.4 0 0 1-3.4-3.4 26.9 26.9 0 0 1-3.7-5.4 34.9 34.9 0 0 1-2.2-5 57 57 0 0 1-1.4-5.9l-.3-2.8v-3.1a3.2 3.2 0 0 0 0-.4 29.6 29.6 0 0 1 .8-4.8 32.7 32.7 0 0 1 2.3-7 25.6 25.6 0 0 1 2.5-4.3l2.4-3a27.2 27.2 0 0 1 6-5.4 25.9 25.9 0 0 1 5.5-2.7 24.3 24.3 0 0 1 11.5-1.2 23.8 23.8 0 0 1 8.7 2.9c1.3.7 2.5 1.5 3.8 2.4a27.6 27.6 0 0 1 6.4 6.7 30.7 30.7 0 0 1 2.3 3.8 28 28 0 0 1 2.4 6.5c.5 2 .6 4 1 5.9a3 3 0 0 0 0 .6zm-27.9-8.6H334a1.5 1.5 0 0 0-1.5 1 92 92 0 0 1-1.9 3.5l-3 5.3a.6.6 0 0 0 0 .7l.7 1.2 2.8 5c.5 1 1 2 1.7 3 .1.3.3.7.8.7h10.2a.7.7 0 0 0 .5-.3l3.2-5.7 2-3.6a1 1 0 0 0 0-1.2L347 176l-2.7-5a.7.7 0 0 0-.7-.4zm-14 5.4c.5-.7 1-1.4 1.3-2.1l2.8-5 2-3.4 3.7-6.3 2.2-3.8c-.8 0-1.6.2-2.3.3a20.8 20.8 0 0 0-8.2 3.5c-1 .6-1.8 1.4-2.6 2a22.4 22.4 0 0 0-4.3 5.3.7.7 0 0 0 0 .8l2 3 2 3.4 1.2 2a2.6 2.6 0 0 0 .2.3zm16 30.1h1.2a22.3 22.3 0 0 0 14.8-9l1.5-2.2a.7.7 0 0 0 0-.5l-2.9-4.7-1.8-3-.8-1.2-2 3.6-2.3 3.9-3.7 6.4-2 3.3-.1.3-2 3.1zm-4.5-40.6h21.3c-.4-.5-.6-1-1-1.3a44.5 44.5 0 0 0-3-3.3 19.5 19.5 0 0 0-6.7-4l-4.4-1.3a.6.6 0 0 0-.5.3 84.8 84.8 0 0 0-4 6.6l-.1.4-1.6 2.6zm-16.2 30.6a5.4 5.4 0 0 0 .3.5l2.1 2.6a20.8 20.8 0 0 0 5 4 21.3 21.3 0 0 0 7.5 2.7.8.8 0 0 0 .7-.3l3-5.4 1.7-2.6.9-1.6zm29.6-25.5l1.7 3 2.2 3.8 3.7 6.3 2 3.3 1 1.9a3.5 3.5 0 0 1 .3.6l.3-.2c.3-1.8.8-3.6 1-5.4a24.2 24.2 0 0 0-.2-7 27.5 27.5 0 0 0-1.3-5.8c-.2-.4-.4-.5-.7-.5h-9.6-.4zm-32.8 1.6c-.3.9-.6 1.7-.7 2.6a30.5 30.5 0 0 0 1 15.5c.1.5.3.7.7.7h10l-.3-.6-1.9-3.2c-.8-1.4-1.5-2.9-2.4-4.3l-2.3-4-3.1-5.1-1-1.6z"/></g></g></g></g></svg>